<svg width="16" height="16" viewBox="0 0 16 16" fill="none" xmlns="http://www.w3.org/2000/svg">
<path id="Vector" d="M8.00211 3.8978C5.73144 3.8978 3.89991 5.72933 3.89991 8C3.89991 10.2707 5.73144 12.1022 8.00211 12.1022C10.2728 12.1022 12.1043 10.2707 12.1043 8C12.1043 5.72933 10.2728 3.8978 8.00211 3.8978ZM8.00211 10.667C6.53474 10.667 5.33514 9.47094 5.33514 8C5.33514 6.52906 6.53117 5.33304 8.00211 5.33304C9.47304 5.33304 10.6691 6.52906 10.6691 8C10.6691 9.47094 9.46947 10.667 8.00211 10.667ZM13.2289 3.73C13.2289 4.26197 12.8005 4.68682 12.2721 4.68682C11.7401 4.68682 11.3153 4.2584 11.3153 3.73C11.3153 3.20161 11.7437 2.77318 12.2721 2.77318C12.8005 2.77318 13.2289 3.20161 13.2289 3.73ZM15.9459 4.7011C15.8852 3.41939 15.5924 2.28406 14.6535 1.34866C13.718 0.413254 12.5827 0.120495 11.301 0.0562312C9.98002 -0.0187437 6.02063 -0.0187437 4.69964 0.0562312C3.4215 0.116925 2.28616 0.409684 1.34719 1.34509C0.40822 2.28049 0.119031 3.41582 0.0547663 4.69753C-0.0202086 6.01852 -0.0202086 9.97791 0.0547663 11.2989C0.11546 12.5806 0.40822 13.7159 1.34719 14.6513C2.28616 15.5867 3.41793 15.8795 4.69964 15.9438C6.02063 16.0187 9.98002 16.0187 11.301 15.9438C12.5827 15.8831 13.718 15.5903 14.6535 14.6513C15.5889 13.7159 15.8816 12.5806 15.9459 11.2989C16.0209 9.97791 16.0209 6.02209 15.9459 4.7011ZM14.2393 12.7163C13.9608 13.416 13.4217 13.9551 12.7184 14.2372C11.6652 14.6549 9.166 14.5585 8.00211 14.5585C6.83821 14.5585 4.33548 14.6513 3.28583 14.2372C2.58606 13.9587 2.04696 13.4196 1.76491 12.7163C1.34719 11.6631 1.44359 9.1639 1.44359 8C1.44359 6.8361 1.35076 4.33337 1.76491 3.28372C2.04339 2.58396 2.58249 2.04485 3.28583 1.7628C4.33905 1.34509 6.83821 1.44148 8.00211 1.44148C9.166 1.44148 11.6687 1.34866 12.7184 1.7628C13.4181 2.04128 13.9573 2.58039 14.2393 3.28372C14.657 4.33694 14.5606 6.8361 14.5606 8C14.5606 9.1639 14.657 11.6666 14.2393 12.7163Z" fill="#484A64"/>
</svg>
