<svg width="32" height="32" viewBox="0 0 32 32" fill="none" xmlns="http://www.w3.org/2000/svg">
<g id="Group 514076">
<rect id="Rectangle 69" width="32" height="32" rx="16" fill="#F6F7FE"/>
<g id="Group 2235">
<path id="Union" fill-rule="evenodd" clip-rule="evenodd" d="M16.3326 5.22339C16.0248 4.92554 15.5258 4.92554 15.218 5.22339L8.90203 11.3356C8.59425 11.6335 8.59425 12.1164 8.90203 12.4142C9.26236 12.763 9.83447 12.7491 10.2192 12.4274C11.727 11.1668 13.692 10.4044 15.841 10.4044C17.9909 10.4044 19.9567 11.1675 21.4648 12.4291C21.8107 12.7185 22.3245 12.7278 22.6485 12.4142C22.9563 12.1164 22.9563 11.6335 22.6485 11.3356L16.3326 5.22339ZM7.75488 18.9792C7.75488 14.5494 11.3459 10.9584 15.7756 10.9584C20.2054 10.9584 23.7964 14.5494 23.7964 18.9792C23.7964 23.4089 20.2054 26.9999 15.7756 26.9999C11.3459 26.9999 7.75488 23.4089 7.75488 18.9792Z" fill="url(#paint0_linear_148_1251)"/>
<g id="Group 2138">
<path id="Ellipse 129 (Stroke)" fill-rule="evenodd" clip-rule="evenodd" d="M16.4763 20.305C16.625 20.2434 16.7652 20.1642 16.8943 20.0693C17.0283 19.9707 17.218 19.9685 17.3357 20.0862C17.4534 20.2039 17.4544 20.3963 17.3238 20.4996C17.1363 20.6479 16.9288 20.7699 16.707 20.8618C16.3922 20.9922 16.0547 21.0593 15.714 21.0593C15.3732 21.0593 15.0358 20.9922 14.721 20.8618C14.4992 20.7699 14.2916 20.6479 14.1041 20.4996C13.9736 20.3963 13.9745 20.2039 14.0922 20.0862C14.2099 19.9685 14.3996 19.9707 14.5337 20.0693C14.6627 20.1642 14.803 20.2434 14.9516 20.305C15.1933 20.4051 15.4524 20.4566 15.714 20.4566C15.9756 20.4566 16.2346 20.4051 16.4763 20.305Z" fill="#546C00"/>
<g id="Group 2134">
<circle id="Ellipse 131" cx="13.6598" cy="17.8371" r="0.631436" fill="#546C00"/>
<circle id="Ellipse 132" cx="17.9371" cy="17.8371" r="0.631436" fill="#546C00"/>
</g>
</g>
</g>
</g>
<defs>
<linearGradient id="paint0_linear_148_1251" x1="12.5768" y1="9.21922" x2="19.0564" y2="26.3974" gradientUnits="userSpaceOnUse">
<stop stop-color="#E8F276"/>
<stop offset="1" stop-color="#B1CE57"/>
</linearGradient>
</defs>
</svg>
