<svg width="32" height="32" viewBox="0 0 32 32" fill="none" xmlns="http://www.w3.org/2000/svg">
<g id="Group 514078">
<rect id="Rectangle 69" width="32" height="32" rx="16" fill="#F6F7FE"/>
<g id="Group 2234">
<path id="Union" fill-rule="evenodd" clip-rule="evenodd" d="M16.5779 5.22339C16.2701 4.92554 15.7711 4.92554 15.4633 5.22339L9.14736 11.3356C8.83958 11.6335 8.83957 12.1164 9.14736 12.4142C9.50769 12.7629 10.0798 12.7491 10.4645 12.4274C11.9723 11.1668 13.9373 10.4044 16.0863 10.4044C18.2362 10.4044 20.202 11.1675 21.7101 12.4291C22.056 12.7185 22.5698 12.7278 22.8939 12.4142C23.2016 12.1164 23.2016 11.6335 22.8939 11.3356L16.5779 5.22339ZM8 18.9792C8 14.5495 11.591 10.9585 16.0207 10.9585C20.4505 10.9585 24.0415 14.5495 24.0415 18.9792C24.0415 23.4089 20.4505 26.9999 16.0207 26.9999C11.591 26.9999 8 23.4089 8 18.9792Z" fill="url(#paint0_linear_148_1330)"/>
<g id="Group 2137">
<path id="Subtract" fill-rule="evenodd" clip-rule="evenodd" d="M16.0471 19.8242C14.9777 19.8242 14.319 20.967 15.3319 21.3103C15.5564 21.3863 15.7969 21.4276 16.0471 21.4276C16.2973 21.4276 16.5379 21.3863 16.7624 21.3103C17.7753 20.967 17.1166 19.8242 16.0471 19.8242Z" fill="#006676"/>
<g id="Group 2133">
<circle id="Ellipse 131" cx="13.9051" cy="17.8371" r="0.631435" fill="#006676"/>
<circle id="Ellipse 132" cx="18.1822" cy="17.8371" r="0.631435" fill="#006676"/>
</g>
</g>
</g>
</g>
<defs>
<linearGradient id="paint0_linear_148_1330" x1="12.8219" y1="9.21922" x2="19.3015" y2="26.3974" gradientUnits="userSpaceOnUse">
<stop stop-color="#BCEFEC"/>
<stop offset="1" stop-color="#56C3D8"/>
</linearGradient>
</defs>
</svg>
