<svg width="32" height="32" viewBox="0 0 32 32" fill="none" xmlns="http://www.w3.org/2000/svg">
<g id="Group 514080">
<rect id="Rectangle 69" width="32" height="32" rx="16" fill="#F6F7FE"/>
<g id="Group 2232">
<path id="Union" fill-rule="evenodd" clip-rule="evenodd" d="M16.5777 5.22339C16.2699 4.92554 15.7709 4.92554 15.4631 5.22339L9.14716 11.3356C8.83938 11.6335 8.83938 12.1164 9.14716 12.4142C9.50749 12.7629 10.0796 12.7491 10.4643 12.4274C11.9722 11.1668 13.9371 10.4044 16.0861 10.4044C18.236 10.4044 20.2018 11.1675 21.7099 12.4291C22.0558 12.7185 22.5696 12.7278 22.8937 12.4142C23.2014 12.1164 23.2014 11.6335 22.8937 11.3356L16.5777 5.22339ZM8 18.9792C8 14.5495 11.591 10.9585 16.0207 10.9585C20.4505 10.9585 24.0415 14.5495 24.0415 18.9792C24.0415 23.4089 20.4505 26.9999 16.0207 26.9999C11.591 26.9999 8 23.4089 8 18.9792Z" fill="url(#paint0_linear_148_1334)"/>
<g id="Group 2141">
<g id="Group 2140">
<path id="Line 1065" d="M10.4116 19.3145H11.3157" stroke="#BA2A29" stroke-linecap="round"/>
<path id="Line 1066" d="M14.3293 19.3145H15.2334" stroke="#BA2A29" stroke-linecap="round"/>
</g>
<path id="Ellipse 129 (Stroke)" fill-rule="evenodd" clip-rule="evenodd" d="M12.0869 21.4977C11.9383 21.5592 11.798 21.6384 11.669 21.7333C11.5349 21.8319 11.3452 21.8341 11.2275 21.7164C11.1098 21.5987 11.1089 21.4063 11.2394 21.303C11.4269 21.1547 11.6344 21.0327 11.8562 20.9408C12.1711 20.8104 12.5085 20.7433 12.8493 20.7433C13.19 20.7433 13.5274 20.8104 13.8423 20.9408C14.0641 21.0327 14.2716 21.1547 14.4591 21.303C14.5897 21.4063 14.5887 21.5987 14.471 21.7164C14.3533 21.8341 14.1636 21.8319 14.0295 21.7333C13.9005 21.6384 13.7602 21.5592 13.6116 21.4977C13.3699 21.3975 13.1109 21.346 12.8493 21.346C12.5876 21.346 12.3286 21.3975 12.0869 21.4977Z" fill="#BA2A29"/>
</g>
</g>
</g>
<defs>
<linearGradient id="paint0_linear_148_1334" x1="12.8219" y1="9.21922" x2="19.3015" y2="26.3974" gradientUnits="userSpaceOnUse">
<stop stop-color="#F8B597"/>
<stop offset="1" stop-color="#FE6769"/>
</linearGradient>
</defs>
</svg>
