<svg width="24" height="25" viewBox="0 0 24 25" fill="none" xmlns="http://www.w3.org/2000/svg">
<g id="Group 1000003109">
<g id="Group 1000003108">
<path id="Subtract" fill-rule="evenodd" clip-rule="evenodd" d="M9.17501 10.825C9.95835 11.6084 10.9 12 12 12C13.1 12 14.0417 11.6084 14.825 10.825C15.6084 10.0417 16 9.10001 16 8.00001C16 6.90001 15.6084 5.95834 14.825 5.175C14.0417 4.39167 13.1 4 12 4C10.9 4 9.95835 4.39167 9.17501 5.175C8.39168 5.95834 8.00001 6.90001 8.00001 8.00001C8.00001 9.10001 8.39168 10.0417 9.17501 10.825ZM4 17.2V20H7.60514L14.2909 13.1908C13.5354 13.0636 12.7718 13 12 13C10.9 13 9.81668 13.1292 8.75001 13.3875C7.68334 13.6459 6.63334 14.0334 5.6 14.55C5.11667 14.8 4.72917 15.1625 4.4375 15.6375C4.14583 16.1125 4 16.6334 4 17.2ZM18.5058 14.6074L13.2109 20H20V17.2C20 16.6334 19.8542 16.1125 19.5625 15.6375C19.2925 15.1977 18.9402 14.8543 18.5058 14.6074Z" fill="#1C1B1F"/>
<path id="Rectangle 34624491" d="M16.0328 12.4672C16.2271 12.275 16.5397 12.2745 16.7347 12.4659L17.92 13.6297C18.1152 13.8214 18.1201 14.1344 17.9311 14.3321L12.2642 20.2583C12.1699 20.357 12.0393 20.4128 11.9028 20.4128L9.21643 20.4128C8.76966 20.4128 8.54718 19.8715 8.86481 19.5573L16.0328 12.4672Z" fill="black"/>
</g>
</g>
</svg>
