<svg width="12" height="13" viewBox="0 0 12 13" fill="none" xmlns="http://www.w3.org/2000/svg">
<path id="Vector" d="M9.74857 5.14748C9.74857 6.2231 9.3994 7.21671 8.81121 8.02284L11.778 10.9919C12.0709 11.2849 12.0709 11.7606 11.778 12.0535C11.485 12.3464 11.0093 12.3464 10.7164 12.0535L7.74965 9.0844C6.94351 9.67494 5.94991 10.0218 4.87429 10.0218C2.18171 10.0218 0 7.84005 0 5.14748C0 2.45491 2.18171 0.273193 4.87429 0.273193C7.56686 0.273193 9.74857 2.45491 9.74857 5.14748ZM4.87429 8.52199C5.31743 8.52199 5.75624 8.4347 6.16565 8.26512C6.57507 8.09553 6.94707 7.84697 7.26042 7.53362C7.57377 7.22026 7.82234 6.84826 7.99192 6.43885C8.16151 6.02943 8.24879 5.59063 8.24879 5.14748C8.24879 4.70433 8.16151 4.26553 7.99192 3.85611C7.82234 3.4467 7.57377 3.0747 7.26042 2.76134C6.94707 2.44799 6.57507 2.19943 6.16565 2.02984C5.75624 1.86026 5.31743 1.77297 4.87429 1.77297C4.43114 1.77297 3.99233 1.86026 3.58292 2.02984C3.1735 2.19943 2.8015 2.44799 2.48815 2.76134C2.1748 3.0747 1.92623 3.4467 1.75665 3.85611C1.58706 4.26553 1.49978 4.70433 1.49978 5.14748C1.49978 5.59063 1.58706 6.02943 1.75665 6.43885C1.92623 6.84826 2.1748 7.22026 2.48815 7.53362C2.8015 7.84697 3.1735 8.09553 3.58292 8.26512C3.99233 8.4347 4.43114 8.52199 4.87429 8.52199Z" fill="#C0C5DC"/>
</svg>
