<svg width="24" height="24" viewBox="0 0 24 24" fill="none" xmlns="http://www.w3.org/2000/svg">
<g id="group">
<mask id="mask0_183_2602" style="mask-type:alpha" maskUnits="userSpaceOnUse" x="0" y="0" width="24" height="24">
<rect id="Bounding box" width="24" height="24" fill="#D9D9D9"/>
</mask>
<g mask="url(#mask0_183_2602)">
<path id="group_2" d="M2 19V16.55C2 16.0542 2.13258 15.5984 2.39773 15.1828C2.66288 14.7672 3.01515 14.45 3.45455 14.2312C4.39394 13.7792 5.34848 13.4401 6.31818 13.2141C7.28788 12.988 8.27273 12.875 9.27273 12.875C10.2727 12.875 11.2576 12.988 12.2273 13.2141C13.197 13.4401 14.1515 13.7792 15.0909 14.2312C15.5303 14.45 15.8826 14.7672 16.1477 15.1828C16.4129 15.5984 16.5455 16.0542 16.5455 16.55V19H2ZM18.3636 19V16.375C18.3636 15.7333 18.178 15.1172 17.8068 14.5266C17.4356 13.9359 16.9091 13.4292 16.2273 13.0063C17 13.0938 17.7273 13.2432 18.4091 13.4547C19.0909 13.6661 19.7273 13.925 20.3182 14.2312C20.8636 14.5229 21.2803 14.8474 21.5682 15.2047C21.8561 15.562 22 15.9521 22 16.375V19H18.3636ZM9.27273 12C8.27273 12 7.41667 11.6573 6.70455 10.9719C5.99242 10.2865 5.63636 9.4625 5.63636 8.5C5.63636 7.5375 5.99242 6.71354 6.70455 6.02813C7.41667 5.34271 8.27273 5 9.27273 5C10.2727 5 11.1288 5.34271 11.8409 6.02813C12.553 6.71354 12.9091 7.5375 12.9091 8.5C12.9091 9.4625 12.553 10.2865 11.8409 10.9719C11.1288 11.6573 10.2727 12 9.27273 12ZM18.3636 8.5C18.3636 9.4625 18.0076 10.2865 17.2955 10.9719C16.5833 11.6573 15.7273 12 14.7273 12C14.5606 12 14.3485 11.9818 14.0909 11.9453C13.8333 11.9089 13.6212 11.8688 13.4545 11.825C13.8636 11.3583 14.178 10.8406 14.3977 10.2719C14.6174 9.70312 14.7273 9.1125 14.7273 8.5C14.7273 7.8875 14.6174 7.29688 14.3977 6.72812C14.178 6.15937 13.8636 5.64167 13.4545 5.175C13.6667 5.10208 13.8788 5.05469 14.0909 5.03281C14.303 5.01094 14.5152 5 14.7273 5C15.7273 5 16.5833 5.34271 17.2955 6.02813C18.0076 6.71354 18.3636 7.5375 18.3636 8.5Z" fill="#1C1B1F"/>
</g>
</g>
</svg>
